<svg width="4000px" height="30px" viewBox="0 0 4000 30" version="1.1" xmlns="http://www.w3.org/2000/svg" xmlns:xlink="http://www.w3.org/1999/xlink">
    <!-- Generator: Sketch 49.3 (51167) - http://www.bohemiancoding.com/sketch -->
    <title>Dashed horizontal divider</title>
    <desc>Created with Sketch.</desc>
    <defs></defs>
    <g id="Dashed-horizontal-divider" stroke="none" stroke-width="5" fill="none" fill-rule="evenodd" stroke-dasharray="7">
        <path d="M0,5 C32,5 1373,29 1406,29 C1452,31 1543,38 1591,35 C1606,35 1621,33 1636,30 C1679,20 1663,16 1695,16 C1713,16 1716,29 1737,33 C1771,41 1752,28 1783,29" id="Path-2" stroke="#2E8B57" stroke-width="4" transform="translate(892, 20) rotate(-1.000000) translate(-892, -20) "></path>
        <path d="M2230,5 C2263,5 3685,30 3718,31 C3764,32 3815,20 3863,18 C3878,17 3883,35 3898,32 C3941,23 3920,16 3952,16 C3970,15 3978,31 3999,36" id="Path-2-Copy" stroke="#2E8B57" stroke-width="4" transform="translate(3115, 20) scale(-1, 1) rotate(-1.000000) translate(-3115, -20) "></path>
    </g>
</svg>
