<svg width="4000px" height="30px" viewBox="0 0 4000 30" version="1.1" xmlns="http://www.w3.org/2000/svg" xmlns:xlink="http://www.w3.org/1999/xlink">
    <!-- Generator: Sketch 49.3 (51167) - http://www.bohemiancoding.com/sketch -->
    <title>Dashed horizontal divider</title>
    <desc>Created with Sketch.</desc>
    <defs></defs>
    <g id="Dashed-horizontal-divider" stroke="none" stroke-width="5" fill="none" fill-rule="evenodd" stroke-dasharray="6">
        <path d="M0.134140356,5.43130152 C32.684081,5.5164929 1373.66339,29.037007 1406.20795,29.9744112 C1452.71124,31.3138786 1543.5519,38.2374788 1591.51923,35.8887401 C1606.48349,35.1560092 1621.44057,33.1695437 1636.28088,30.0504683 C1679.77,20.9101079 1663.23897,16.5706877 1695.20674,16.2460445 C1713.28169,16.0624875 1716.78505,29.4263783 1737.7562,33.9525444 C1771.58223,41.2531562 1752.86555,28.720601 1783.99614,29.3425905" id="Path-2" stroke="#2E8B57" stroke-width="3" transform="translate(892.065142, 20.901132) rotate(-1.000000) translate(-892.065142, -20.901132) "></path>
        <path d="M2230.99509,5.56212807 C2263.55415,5.64379296 3685.71108,30.6239161 3718.26475,31.5225165 C3764.78107,32.8065368 3815.95495,20.6941642 3863.93572,18.4426512 C3878.90417,17.7402516 3883.52078,35.2615753 3898.36525,32.2716136 C3941.86655,23.5096172 3920.38538,16.3248233 3952.3621,16.0136187 C3970.44211,15.83766 3978.89196,31.6733578 3999.86899,36.0121639" id="Path-2-Copy" stroke="#2E8B57" stroke-width="3" transform="translate(3115.432043, 20.787146) scale(-1, 1) rotate(-1.000000) translate(-3115.432043, -20.787146) "></path>
    </g>
</svg>